<svg width="394" height="150" viewBox="0 0 394 150" fill="none" xmlns="http://www.w3.org/2000/svg">
<path d="M232.353 15.419C232.23 13.8802 231.653 12.6799 230.622 11.8182C229.606 10.9564 228.06 10.5256 225.982 10.5256C224.659 10.5256 223.574 10.6871 222.728 11.0103C221.897 11.3181 221.281 11.7412 220.881 12.2798C220.481 12.8184 220.273 13.4339 220.258 14.1264C220.227 14.6958 220.327 15.2113 220.558 15.6729C220.804 16.1192 221.189 16.527 221.712 16.8963C222.235 17.2502 222.905 17.5734 223.72 17.8658C224.536 18.1581 225.505 18.4197 226.629 18.6506L230.506 19.4815C233.122 20.0355 235.361 20.7665 237.223 21.6744C239.085 22.5823 240.609 23.6518 241.794 24.8828C242.979 26.0985 243.848 27.468 244.402 28.9915C244.971 30.5149 245.264 32.1768 245.279 33.9773C245.264 37.0857 244.487 39.7171 242.948 41.8715C241.409 44.0258 239.209 45.6647 236.346 46.788C233.5 47.9113 230.076 48.473 226.075 48.473C221.966 48.473 218.381 47.8652 215.318 46.6495C212.271 45.4338 209.902 43.5642 208.209 41.0405C206.532 38.5014 205.685 35.2545 205.67 31.2997H217.857C217.934 32.7462 218.296 33.9619 218.942 34.9467C219.589 35.9316 220.496 36.6779 221.666 37.1857C222.851 37.6935 224.259 37.9474 225.89 37.9474C227.26 37.9474 228.406 37.7782 229.329 37.4396C230.253 37.1011 230.953 36.6318 231.43 36.0316C231.907 35.4315 232.153 34.7467 232.168 33.9773C232.153 33.254 231.915 32.6231 231.453 32.0845C231.007 31.5305 230.268 31.0381 229.237 30.6072C228.206 30.161 226.813 29.7455 225.059 29.3608L220.35 28.3452C216.165 27.4373 212.864 25.9215 210.448 23.7979C208.047 21.659 206.855 18.7429 206.87 15.0497C206.855 12.049 207.655 9.42531 209.271 7.17862C210.902 4.91655 213.156 3.15459 216.034 1.89275C218.927 0.630918 222.243 0 225.982 0C229.799 0 233.099 0.638614 235.885 1.91584C238.67 3.19306 240.817 4.99349 242.325 7.31712C243.848 9.62536 244.618 12.326 244.633 15.419H232.353Z" fill="#005F9E"/>
<path d="M187.937 0.646309H200.771V30.9304C200.771 34.5313 199.909 37.6474 198.185 40.2788C196.477 42.8948 194.092 44.9183 191.03 46.3494C187.968 47.7652 184.413 48.473 180.366 48.473C176.288 48.473 172.718 47.7652 169.656 46.3494C166.593 44.9183 164.208 42.8948 162.5 40.2788C160.807 37.6474 159.961 34.5313 159.961 30.9304V0.646309H172.795V29.8224C172.795 31.2843 173.118 32.5923 173.764 33.7465C174.411 34.8852 175.303 35.7777 176.442 36.424C177.596 37.0703 178.904 37.3935 180.366 37.3935C181.843 37.3935 183.151 37.0703 184.29 36.424C185.429 35.7777 186.321 34.8852 186.967 33.7465C187.614 32.5923 187.937 31.2843 187.937 29.8224V0.646309Z" fill="#005F9E"/>
<path d="M130.479 47.919H112.29V0.646309H130.294C135.157 0.646309 139.358 1.59269 142.897 3.48544C146.452 5.36281 149.191 8.07114 151.115 11.6104C153.054 15.1344 154.023 19.3584 154.023 24.2827C154.023 29.2069 153.061 33.4387 151.138 36.978C149.214 40.5019 146.49 43.2102 142.967 45.103C139.443 46.9804 135.28 47.919 130.479 47.919ZM125.124 37.0242H130.017C132.356 37.0242 134.349 36.6471 135.996 35.8931C137.658 35.1391 138.919 33.8388 139.781 31.9922C140.658 30.1456 141.097 27.5758 141.097 24.2827C141.097 20.9896 140.651 18.4197 139.758 16.5732C138.881 14.7266 137.588 13.4263 135.88 12.6722C134.188 11.9182 132.11 11.5412 129.648 11.5412H125.124V37.0242Z" fill="#005F9E"/>
<path d="M106.352 24.2827C106.352 29.5455 105.329 33.985 103.282 37.6012C101.236 41.2021 98.4733 43.9335 94.9956 45.7955C91.5178 47.642 87.64 48.5653 83.362 48.5653C79.0533 48.5653 75.1601 47.6344 71.6823 45.7724C68.22 43.895 65.4655 41.1559 63.4188 37.555C61.3876 33.9388 60.372 29.5147 60.372 24.2827C60.372 19.0199 61.3876 14.5881 63.4188 10.9872C65.4655 7.37098 68.22 4.63956 71.6823 2.79297C75.1601 0.930991 79.0533 0 83.362 0C87.64 0 91.5178 0.930991 94.9956 2.79297C98.4733 4.63956 101.236 7.37098 103.282 10.9872C105.329 14.5881 106.352 19.0199 106.352 24.2827ZM93.149 24.2827C93.149 21.4512 92.772 19.0661 92.0179 17.1271C91.2793 15.1728 90.179 13.6955 88.7172 12.6953C87.2707 11.6797 85.4856 11.1719 83.362 11.1719C81.2385 11.1719 79.4457 11.6797 77.9838 12.6953C76.5373 13.6955 75.4371 15.1728 74.6831 17.1271C73.9444 19.0661 73.5751 21.4512 73.5751 24.2827C73.5751 27.1141 73.9444 29.507 74.6831 31.4613C75.4371 33.4002 76.5373 34.8775 77.9838 35.8931C79.4457 36.8933 81.2385 37.3935 83.362 37.3935C85.4856 37.3935 87.2707 36.8933 88.7172 35.8931C90.179 34.8775 91.2793 33.4002 92.0179 31.4613C92.772 29.507 93.149 27.1141 93.149 24.2827Z" fill="#005F9E"/>
<path d="M0 0.646309H15.973L26.9602 27.4219H27.5142L38.5014 0.646309H54.4744V47.919H41.9176V20.5895H41.5483L31.0227 47.5497H23.4517L12.9261 20.4048H12.5568V47.919H0V0.646309Z" fill="#005F9E"/>
<path d="M262 70H330.5V82.7H303.3V149.3H289.7V82.7H262V70ZM149 70V82.7H94V103.1H138.3V115.7H94V136.7H149V149.3H80.5V70H149.2H149ZM183.3 70H165.5L229.3 149.4H247.2L215.2 109.7L247.2 70.1H229.3L206.3 98.7L183.3 70.1V70ZM201.6 126.7L192.6 115.7L165.5 149.4H183.3L201.6 126.7Z" fill="black"/>
<path d="M81 149.3L17 70H0V149.3H13.6V87L63.8 149.3H81ZM333.6 148.9C332.6 148.9 331.8 148.5 331.1 147.9C330.4 147.3 330 146.3 330 145.3C330 144.3 330.3 143.5 331 142.8C331.7 142.1 332.6 141.8 333.6 141.8C334.6 141.8 335.4 142.1 336.1 142.8C336.686 143.334 337.066 144.057 337.176 144.842C337.285 145.627 337.117 146.426 336.7 147.1C336.387 147.624 335.95 148.063 335.426 148.377C334.903 148.691 334.31 148.871 333.7 148.9H333.6ZM356.8 115.4H362.8V138.7C362.8 140.8 362.4 142.7 361.5 144.2C360.598 145.709 359.278 146.925 357.7 147.7C356.1 148.5 354.2 149 352 149C350 149 348.3 148.6 346.7 148C345.1 147.4 343.9 146.2 343 144.8C342.1 143.5 341.6 141.8 341.6 139.8H347.6C347.7 140.6 347.9 141.4 348.3 142C348.7 142.6 349.3 143.2 349.9 143.5C350.6 143.9 351.4 144 352.3 144C353.3 144 354.1 143.8 354.7 143.4C355.406 142.979 355.964 142.35 356.3 141.6C356.6 140.8 356.8 139.8 356.8 138.6V115.5V115.4ZM387.7 124.5C387.639 123.834 387.428 123.191 387.081 122.619C386.735 122.047 386.262 121.562 385.7 121.2C384.41 120.408 382.911 120.024 381.4 120.1C380.1 120.1 379 120.3 378.1 120.6C377.2 121 376.5 121.6 376.1 122.2C375.646 122.756 375.374 123.437 375.32 124.153C375.266 124.868 375.434 125.583 375.8 126.2C376.1 126.7 376.5 127.1 377.1 127.4L378.9 128.4L380.9 128.9L384.1 129.7C385.4 130 386.6 130.4 387.8 130.9C388.946 131.346 390.024 131.952 391 132.7C391.965 133.481 392.737 134.474 393.257 135.601C393.777 136.728 394.031 137.959 394 139.2C394 141.2 393.5 142.9 392.5 144.3C391.398 145.863 389.871 147.078 388.1 147.8C386.3 148.6 384 149 381.3 149C378.7 149 376.4 148.6 374.5 147.8C372.5 147 371.1 145.8 370 144.3C368.888 142.645 368.296 140.694 368.3 138.7H374.3C374.335 139.735 374.691 140.733 375.318 141.557C375.945 142.381 376.812 142.99 377.8 143.3C378.8 143.7 380 143.9 381.2 143.9C382.5 143.9 383.7 143.7 384.7 143.3C385.7 142.9 386.5 142.3 387.1 141.6C387.619 140.908 387.9 140.065 387.9 139.2C387.9 138.3 387.7 137.6 387.2 137C386.556 136.454 385.851 135.985 385.1 135.6L381.9 134.6L378.1 133.6C375.3 132.9 373.1 131.9 371.5 130.4C370.702 129.688 370.072 128.807 369.657 127.821C369.242 126.835 369.051 125.769 369.1 124.7C369.084 122.889 369.684 121.126 370.8 119.7C371.875 118.151 373.365 116.938 375.1 116.2C377.1 115.4 379.1 115 381.5 115C383.8 115 385.9 115.4 387.7 116.2C389.5 117 390.9 118.2 392 119.6C393 121 393.5 122.6 393.5 124.6H387.7V124.5Z" fill="black"/>
</svg>
